<svg 
 xmlns="http://www.w3.org/2000/svg"
 xmlns:xlink="http://www.w3.org/1999/xlink"
 width="215px" height="39px">
<path fill-rule="evenodd"  fill="rgb(51, 51, 51)"
 d="M205.293,21.537 C205.786,21.814 206.345,22.054 206.970,22.256 C207.596,22.457 208.237,22.659 208.894,22.861 C209.550,23.063 210.192,23.287 210.817,23.534 C211.442,23.780 212.001,24.087 212.494,24.453 C212.987,24.819 213.385,25.268 213.688,25.798 C213.991,26.329 214.143,26.973 214.143,27.731 C214.143,28.552 213.994,29.316 213.697,30.024 C213.400,30.731 212.971,31.344 212.409,31.862 C211.846,32.380 211.155,32.790 210.334,33.093 C209.513,33.397 208.578,33.548 207.529,33.548 C206.203,33.548 205.060,33.336 204.100,32.913 C203.140,32.490 202.281,31.938 201.523,31.255 L201.959,30.611 C202.022,30.510 202.091,30.434 202.167,30.384 C202.243,30.333 202.350,30.308 202.489,30.308 C202.653,30.308 202.855,30.409 203.095,30.611 C203.335,30.813 203.648,31.031 204.033,31.265 C204.419,31.499 204.899,31.717 205.473,31.919 C206.048,32.121 206.759,32.222 207.605,32.222 C208.401,32.222 209.102,32.111 209.709,31.890 C210.315,31.669 210.820,31.369 211.224,30.990 C211.629,30.611 211.935,30.166 212.143,29.654 C212.352,29.143 212.456,28.603 212.456,28.034 C212.456,27.403 212.304,26.878 212.001,26.461 C211.698,26.044 211.300,25.691 210.808,25.400 C210.315,25.110 209.756,24.863 209.131,24.661 C208.505,24.459 207.861,24.257 207.198,24.055 C206.535,23.853 205.890,23.632 205.265,23.392 C204.640,23.152 204.081,22.849 203.588,22.482 C203.095,22.116 202.698,21.671 202.394,21.146 C202.091,20.622 201.940,19.968 201.940,19.185 C201.940,18.516 202.085,17.871 202.375,17.252 C202.666,16.634 203.079,16.090 203.617,15.623 C204.153,15.156 204.807,14.783 205.578,14.505 C206.348,14.227 207.214,14.088 208.174,14.088 C209.323,14.088 210.343,14.255 211.234,14.587 C212.124,14.920 212.942,15.430 213.688,16.115 L213.290,16.741 C213.201,16.918 213.062,17.006 212.873,17.006 C212.734,17.006 212.554,16.927 212.333,16.769 C212.112,16.611 211.821,16.435 211.461,16.239 C211.101,16.043 210.659,15.866 210.135,15.708 C209.611,15.550 208.970,15.471 208.212,15.471 C207.529,15.471 206.907,15.569 206.345,15.764 C205.783,15.960 205.303,16.221 204.905,16.549 C204.507,16.876 204.197,17.257 203.977,17.692 C203.755,18.126 203.645,18.583 203.645,19.062 C203.645,19.654 203.797,20.146 204.100,20.536 C204.403,20.927 204.801,21.260 205.293,21.537 ZM197.545,23.070 L183.939,23.070 L183.939,23.430 C183.939,24.845 184.103,26.089 184.432,27.162 C184.760,28.236 185.227,29.136 185.834,29.863 C186.440,30.589 187.173,31.135 188.032,31.502 C188.891,31.868 189.851,32.051 190.912,32.051 C191.859,32.051 192.680,31.947 193.375,31.739 C194.070,31.530 194.654,31.297 195.128,31.037 C195.602,30.779 195.977,30.545 196.255,30.336 C196.533,30.128 196.735,30.024 196.862,30.024 C197.026,30.024 197.152,30.087 197.241,30.213 L197.733,30.820 C197.430,31.199 197.029,31.552 196.530,31.881 C196.031,32.209 195.475,32.490 194.863,32.724 C194.250,32.958 193.593,33.144 192.892,33.283 C192.191,33.422 191.487,33.491 190.779,33.491 C189.491,33.491 188.316,33.267 187.255,32.819 C186.194,32.370 185.283,31.717 184.523,30.857 C183.763,29.999 183.176,28.947 182.761,27.703 C182.346,26.458 182.139,25.034 182.139,23.430 C182.139,22.078 182.331,20.831 182.717,19.687 C183.102,18.544 183.658,17.559 184.384,16.731 C185.110,15.904 186.001,15.256 187.056,14.789 C188.111,14.322 189.308,14.088 190.647,14.088 C191.708,14.088 192.690,14.271 193.593,14.637 C194.496,15.004 195.280,15.537 195.943,16.239 C196.606,16.940 197.124,17.802 197.497,18.825 C197.869,19.848 198.056,21.023 198.056,22.350 C198.056,22.628 198.014,22.817 197.932,22.918 C197.850,23.019 197.721,23.070 197.545,23.070 ZM196.010,19.195 C195.732,18.392 195.341,17.714 194.837,17.158 C194.332,16.602 193.727,16.175 193.020,15.879 C192.314,15.582 191.532,15.433 190.675,15.433 C189.703,15.433 188.833,15.585 188.063,15.888 C187.294,16.191 186.629,16.627 186.067,17.195 C185.506,17.764 185.052,18.446 184.705,19.242 C184.358,20.038 184.128,20.928 184.015,21.914 L196.426,21.914 C196.426,20.903 196.287,19.997 196.010,19.195 ZM176.057,21.194 C176.057,19.425 175.652,18.039 174.844,17.034 C174.035,16.030 172.798,15.528 171.130,15.528 C169.892,15.528 168.743,15.847 167.681,16.485 C166.620,17.123 165.673,17.998 164.839,19.109 L164.839,33.245 L163.039,33.245 L163.039,14.391 L164.024,14.391 C164.353,14.391 164.542,14.549 164.593,14.865 L164.763,17.707 C165.622,16.621 166.623,15.746 167.767,15.083 C168.910,14.419 170.183,14.088 171.585,14.088 C172.621,14.088 173.533,14.252 174.323,14.581 C175.112,14.909 175.766,15.383 176.284,16.002 C176.802,16.621 177.194,17.366 177.459,18.238 C177.724,19.109 177.857,20.095 177.857,21.194 L177.857,33.245 L176.057,33.245 L176.057,21.194 ZM156.654,9.048 C156.502,9.199 156.325,9.319 156.123,9.408 C155.921,9.496 155.706,9.540 155.479,9.540 C155.252,9.540 155.037,9.496 154.835,9.408 C154.632,9.319 154.456,9.199 154.304,9.048 C154.153,8.896 154.032,8.722 153.944,8.526 C153.856,8.331 153.811,8.119 153.811,7.892 C153.811,7.664 153.856,7.446 153.944,7.238 C154.032,7.029 154.153,6.849 154.304,6.698 C154.456,6.546 154.632,6.426 154.835,6.338 C155.037,6.250 155.252,6.205 155.479,6.205 C155.706,6.205 155.921,6.250 156.123,6.338 C156.325,6.426 156.502,6.546 156.654,6.698 C156.805,6.849 156.929,7.029 157.023,7.238 C157.118,7.446 157.165,7.664 157.165,7.892 C157.165,8.119 157.118,8.331 157.023,8.526 C156.929,8.722 156.805,8.896 156.654,9.048 ZM135.564,6.433 L137.497,6.433 L137.497,31.596 L150.212,31.596 L150.212,33.245 L135.564,33.245 L135.564,6.433 ZM129.236,23.657 L116.465,23.657 C116.490,24.870 116.654,25.925 116.957,26.821 C117.260,27.718 117.677,28.467 118.208,29.067 C118.738,29.667 119.370,30.115 120.103,30.412 C120.835,30.709 121.656,30.857 122.566,30.857 C123.412,30.857 124.142,30.760 124.755,30.564 C125.367,30.368 125.894,30.156 126.337,29.929 C126.779,29.702 127.148,29.490 127.445,29.294 C127.742,29.098 127.998,29.000 128.213,29.000 C128.490,29.000 128.705,29.108 128.857,29.323 L129.804,30.554 C129.388,31.060 128.888,31.499 128.307,31.871 C127.726,32.244 127.104,32.550 126.441,32.790 C125.778,33.030 125.092,33.210 124.385,33.330 C123.677,33.450 122.976,33.510 122.282,33.510 C120.955,33.510 119.733,33.286 118.615,32.838 C117.497,32.389 116.531,31.732 115.716,30.867 C114.901,30.002 114.266,28.931 113.812,27.655 C113.357,26.379 113.130,24.914 113.130,23.259 C113.130,21.920 113.335,20.670 113.745,19.507 C114.156,18.345 114.746,17.338 115.517,16.485 C116.287,15.632 117.229,14.963 118.340,14.476 C119.452,13.990 120.702,13.747 122.092,13.747 C123.242,13.747 124.303,13.940 125.276,14.325 C126.248,14.710 127.088,15.266 127.796,15.992 C128.503,16.719 129.056,17.616 129.454,18.683 C129.852,19.751 130.051,20.966 130.051,22.331 C130.051,22.861 129.994,23.215 129.880,23.392 C129.766,23.569 129.552,23.657 129.236,23.657 ZM126.697,19.403 C126.482,18.753 126.166,18.190 125.749,17.717 C125.332,17.243 124.824,16.877 124.224,16.618 C123.624,16.359 122.938,16.229 122.168,16.229 C120.538,16.229 119.256,16.700 118.321,17.641 C117.386,18.582 116.806,19.886 116.578,21.554 L127.019,21.554 C127.019,20.771 126.911,20.054 126.697,19.403 ZM109.378,23.657 L96.607,23.657 C96.632,24.870 96.796,25.925 97.099,26.821 C97.403,27.718 97.820,28.467 98.350,29.067 C98.881,29.667 99.512,30.115 100.245,30.412 C100.977,30.709 101.799,30.857 102.708,30.857 C103.554,30.857 104.284,30.760 104.897,30.564 C105.509,30.368 106.037,30.156 106.479,29.929 C106.921,29.702 107.291,29.490 107.588,29.294 C107.884,29.098 108.140,29.000 108.355,29.000 C108.633,29.000 108.848,29.108 108.999,29.323 L109.947,30.554 C109.530,31.060 109.031,31.499 108.450,31.871 C107.869,32.244 107.246,32.550 106.583,32.790 C105.920,33.030 105.235,33.210 104.527,33.330 C103.820,33.450 103.119,33.510 102.424,33.510 C101.098,33.510 99.875,33.286 98.757,32.838 C97.639,32.389 96.673,31.732 95.858,30.867 C95.044,30.002 94.409,28.931 93.954,27.655 C93.499,26.379 93.272,24.914 93.272,23.259 C93.272,21.920 93.477,20.670 93.888,19.507 C94.298,18.345 94.889,17.338 95.659,16.485 C96.430,15.632 97.371,14.963 98.483,14.476 C99.594,13.990 100.845,13.747 102.235,13.747 C103.384,13.747 104.445,13.940 105.418,14.325 C106.391,14.710 107.230,15.266 107.938,15.992 C108.645,16.719 109.198,17.616 109.596,18.683 C109.994,19.751 110.193,20.966 110.193,22.331 C110.193,22.861 110.136,23.215 110.022,23.392 C109.909,23.569 109.694,23.657 109.378,23.657 ZM106.839,19.403 C106.624,18.753 106.309,18.190 105.892,17.717 C105.475,17.243 104.966,16.877 104.366,16.618 C103.766,16.359 103.081,16.229 102.310,16.229 C100.681,16.229 99.398,16.700 98.464,17.641 C97.529,18.582 96.948,19.886 96.720,21.554 L107.161,21.554 C107.161,20.771 107.054,20.054 106.839,19.403 ZM90.013,17.385 C89.836,17.385 89.564,17.325 89.198,17.205 C88.831,17.085 88.320,17.025 87.663,17.025 C86.488,17.025 85.506,17.366 84.716,18.048 C83.927,18.730 83.267,19.722 82.736,21.023 L82.736,33.245 L79.363,33.245 L79.363,14.050 L81.296,14.050 C81.662,14.050 81.915,14.120 82.054,14.258 C82.193,14.398 82.288,14.637 82.338,14.978 L82.566,17.972 C83.223,16.634 84.034,15.588 85.001,14.836 C85.967,14.085 87.101,13.709 88.402,13.709 C88.933,13.709 89.413,13.769 89.842,13.889 C90.271,14.009 90.669,14.176 91.036,14.391 L90.600,16.911 C90.512,17.227 90.316,17.385 90.013,17.385 ZM63.276,18.579 L74.418,18.579 L74.418,21.573 L63.276,21.573 L63.276,33.245 L59.581,33.245 L59.581,6.092 L76.313,6.092 L76.313,9.085 L63.276,9.085 L63.276,18.579 ZM41.000,15.616 C40.995,16.087 40.738,16.516 40.332,16.742 L35.958,19.173 L35.958,29.900 C35.958,30.376 35.701,30.815 35.290,31.039 L21.164,38.839 C21.149,38.847 21.131,38.844 21.115,38.852 C20.940,38.940 20.753,39.000 20.548,39.000 C20.342,39.000 20.155,38.940 19.982,38.852 C19.967,38.844 19.949,38.847 19.934,38.839 L5.807,31.039 C5.394,30.815 5.137,30.376 5.137,29.900 L5.137,19.225 L0.668,16.742 C0.262,16.516 0.005,16.087 0.000,15.616 C-0.005,15.148 0.239,14.712 0.640,14.475 L4.259,12.346 L0.640,10.224 C0.239,9.990 -0.005,9.556 0.000,9.083 C0.005,8.615 0.262,8.183 0.673,7.960 L14.799,0.160 C15.192,-0.058 15.675,-0.051 16.058,0.176 L20.501,2.791 L24.945,0.176 C25.332,-0.051 25.813,-0.056 26.203,0.160 L40.330,7.960 C40.738,8.183 40.995,8.612 41.000,9.083 C41.005,9.556 40.761,9.990 40.360,10.227 L36.741,12.348 L40.360,14.478 C40.761,14.712 41.005,15.148 41.000,15.616 ZM21.832,35.511 L33.390,29.128 L33.390,20.600 L26.301,24.539 C26.111,24.646 25.898,24.701 25.684,24.701 C25.461,24.701 25.240,24.643 25.040,24.524 L21.832,22.644 L21.832,35.511 ZM7.705,29.128 L19.263,35.511 L19.263,22.589 L15.960,24.526 C15.760,24.643 15.539,24.701 15.316,24.701 C15.102,24.701 14.889,24.646 14.699,24.539 L7.705,20.652 L7.705,29.128 ZM3.896,15.567 L15.298,21.908 L17.935,20.364 L6.819,13.849 L3.896,15.567 ZM15.393,2.796 L3.907,9.135 L6.819,10.840 L17.946,4.299 L15.393,2.796 ZM20.499,5.799 L9.377,12.341 L20.499,18.859 L31.620,12.341 L20.499,5.799 ZM37.096,9.132 L25.610,2.794 L23.057,4.297 L34.181,10.840 L37.096,9.132 ZM34.181,13.846 L23.065,20.361 L25.702,21.906 L37.104,15.567 L34.181,13.846 ZM156.370,33.245 L154.569,33.245 L154.569,14.391 L156.370,14.391 L156.370,33.245 Z"/>
</svg>