<svg 
 xmlns="http://www.w3.org/2000/svg"
 xmlns:xlink="http://www.w3.org/1999/xlink"
 width="14px" height="20px">
<path fill-rule="evenodd"  opacity="0.8" fill="rgb(246, 195, 40)"
 d="M9.589,16.653 C8.959,17.556 8.246,18.580 7.430,19.764 C7.329,19.911 7.169,19.999 7.000,19.999 C6.830,19.999 6.671,19.911 6.569,19.764 C5.749,18.574 5.032,17.546 4.400,16.639 C0.758,11.414 -0.000,10.326 -0.000,7.615 C-0.000,3.415 3.140,-0.002 7.000,-0.002 C10.859,-0.002 13.999,3.415 13.999,7.615 C13.999,10.322 13.240,11.413 9.589,16.653 ZM7.000,1.170 C3.734,1.170 1.077,4.061 1.077,7.615 C1.077,9.933 1.715,10.849 5.258,15.931 C5.778,16.677 6.355,17.504 6.999,18.437 C7.640,17.510 8.213,16.687 8.730,15.945 C12.283,10.846 12.923,9.928 12.923,7.615 C12.923,4.061 10.266,1.170 7.000,1.170 ZM7.000,11.717 C4.921,11.717 3.230,9.877 3.230,7.615 C3.230,5.354 4.921,3.514 7.000,3.514 C9.078,3.514 10.769,5.354 10.769,7.615 C10.769,9.877 9.078,11.717 7.000,11.717 ZM7.000,4.686 C5.515,4.686 4.307,6.000 4.307,7.615 C4.307,9.230 5.515,10.545 7.000,10.545 C8.484,10.545 9.692,9.230 9.692,7.615 C9.692,6.000 8.484,4.686 7.000,4.686 Z"/>
</svg>