<svg 
 xmlns="http://www.w3.org/2000/svg"
 xmlns:xlink="http://www.w3.org/1999/xlink"
 width="18px" height="18px">
<path fill-rule="evenodd"  opacity="0.902" fill="rgb(246, 195, 40)"
 d="M17.572,8.523 C17.542,8.527 17.515,8.531 17.485,8.531 C17.237,8.531 17.020,8.356 16.978,8.105 C16.677,6.335 15.839,4.720 14.551,3.437 C13.264,2.156 11.645,1.316 9.869,1.016 C9.588,0.967 9.401,0.705 9.447,0.424 C9.496,0.147 9.759,-0.044 10.037,0.005 C12.026,0.344 13.835,1.278 15.275,2.715 C16.715,4.151 17.652,5.955 17.992,7.938 C18.041,8.215 17.851,8.481 17.572,8.523 ZM9.896,3.269 C11.104,3.474 12.205,4.044 13.077,4.914 C13.950,5.784 14.521,6.882 14.727,8.086 C14.772,8.367 14.586,8.633 14.304,8.679 C14.273,8.682 14.247,8.686 14.216,8.686 C13.969,8.686 13.751,8.512 13.710,8.261 C13.538,7.266 13.069,6.362 12.346,5.640 C11.622,4.918 10.715,4.447 9.717,4.279 C9.435,4.234 9.252,3.964 9.302,3.687 C9.351,3.410 9.614,3.223 9.896,3.269 ZM6.483,6.654 C6.201,6.939 5.911,7.235 5.599,7.520 C5.831,8.033 6.151,8.538 6.627,9.139 C7.610,10.343 8.635,11.273 9.763,11.988 C9.873,12.057 10.003,12.121 10.140,12.189 C10.235,12.238 10.334,12.288 10.433,12.341 L11.637,11.145 C12.022,10.761 12.471,10.559 12.940,10.559 C13.412,10.559 13.858,10.765 14.228,11.148 L16.319,13.242 C16.704,13.622 16.906,14.073 16.906,14.544 C16.906,15.011 16.708,15.468 16.331,15.859 C16.167,16.030 15.999,16.194 15.835,16.350 C15.595,16.581 15.367,16.798 15.169,17.037 C15.165,17.044 15.157,17.048 15.153,17.056 C14.574,17.683 13.835,17.998 12.955,17.998 C12.879,17.998 12.795,17.994 12.715,17.990 C11.408,17.907 10.239,17.417 9.363,17.002 C7.069,15.897 5.062,14.328 3.393,12.341 C2.018,10.692 1.096,9.154 0.479,7.493 C0.227,6.818 -0.100,5.784 -0.009,4.675 C0.052,3.987 0.330,3.395 0.818,2.908 L2.113,1.605 C2.117,1.602 2.117,1.602 2.121,1.597 C2.502,1.233 2.951,1.039 3.416,1.039 C3.881,1.039 4.323,1.233 4.692,1.597 C4.940,1.825 5.180,2.068 5.408,2.304 C5.523,2.426 5.645,2.547 5.763,2.665 L6.803,3.702 C7.603,4.500 7.603,5.533 6.803,6.331 C6.696,6.438 6.589,6.548 6.483,6.654 ZM6.079,4.428 L5.039,3.391 C4.917,3.266 4.795,3.144 4.677,3.022 C4.445,2.783 4.224,2.558 3.991,2.342 C3.987,2.339 3.984,2.334 3.980,2.331 C3.858,2.209 3.664,2.065 3.424,2.065 C3.229,2.065 3.031,2.160 2.845,2.334 L1.546,3.630 C1.229,3.945 1.058,4.314 1.020,4.758 C0.963,5.454 1.092,6.191 1.446,7.136 C2.022,8.686 2.890,10.130 4.189,11.692 C5.763,13.564 7.656,15.042 9.812,16.084 C10.601,16.459 11.652,16.900 12.784,16.972 C12.841,16.976 12.902,16.976 12.959,16.976 C13.553,16.976 14.007,16.782 14.391,16.372 C14.628,16.095 14.879,15.848 15.127,15.612 C15.291,15.453 15.443,15.309 15.592,15.149 C15.980,14.746 15.980,14.347 15.588,13.960 L13.489,11.866 C13.485,11.862 13.485,11.862 13.481,11.859 C13.363,11.730 13.169,11.582 12.932,11.582 C12.692,11.582 12.487,11.737 12.357,11.866 L11.054,13.165 C10.990,13.230 10.791,13.428 10.475,13.428 C10.349,13.428 10.228,13.397 10.098,13.333 C10.083,13.325 10.068,13.314 10.052,13.306 C9.942,13.238 9.812,13.173 9.675,13.105 C9.523,13.028 9.363,12.949 9.207,12.850 C7.984,12.079 6.875,11.072 5.824,9.781 L5.820,9.777 C5.241,9.044 4.860,8.428 4.589,7.775 C4.586,7.763 4.582,7.752 4.578,7.741 C4.509,7.524 4.448,7.205 4.776,6.878 C4.780,6.871 4.787,6.867 4.795,6.859 C5.127,6.563 5.431,6.259 5.751,5.932 C5.862,5.826 5.968,5.716 6.079,5.605 C6.483,5.203 6.483,4.831 6.079,4.428 Z"/>
</svg>