<svg 
 xmlns="http://www.w3.org/2000/svg"
 xmlns:xlink="http://www.w3.org/1999/xlink"
 width="18px" height="22px">
<path fill-rule="evenodd"  fill="rgb(246, 195, 40)"
 d="M17.996,1.841 L17.996,2.276 L16.942,2.276 L16.942,5.870 L16.259,5.870 L16.259,2.276 L15.649,2.276 L15.649,1.841 L16.259,1.841 L16.259,1.092 C16.259,0.361 16.709,-0.004 17.609,-0.004 C17.713,-0.004 17.842,0.010 17.996,0.036 L17.996,0.472 C17.914,0.450 17.804,0.439 17.667,0.439 C17.447,0.439 17.272,0.493 17.140,0.600 C17.008,0.708 16.942,0.856 16.942,1.044 L16.942,1.841 L17.996,1.841 ZM14.159,5.081 C13.890,5.629 13.440,5.903 12.809,5.903 C12.260,5.903 11.815,5.720 11.475,5.355 C11.140,4.995 10.973,4.495 10.973,3.856 C10.973,3.217 11.140,2.717 11.475,2.357 C11.815,1.992 12.260,1.809 12.809,1.809 C13.440,1.809 13.890,2.067 14.159,2.583 L14.159,0.028 L14.843,0.028 L14.843,5.870 L14.209,5.870 L14.159,5.081 ZM13.830,2.679 C13.610,2.395 13.316,2.252 12.949,2.252 C12.554,2.252 12.239,2.395 12.006,2.679 C11.773,2.964 11.656,3.356 11.656,3.856 C11.656,4.355 11.773,4.748 12.006,5.032 C12.239,5.317 12.554,5.459 12.949,5.459 C13.316,5.459 13.610,5.317 13.830,5.032 C14.049,4.748 14.159,4.355 14.159,3.856 C14.159,3.356 14.049,2.964 13.830,2.679 ZM8.280,5.903 C7.655,5.903 7.202,5.645 6.922,5.129 L6.922,7.603 L6.238,7.603 L6.238,1.841 L6.881,1.841 L6.922,2.631 C7.202,2.083 7.655,1.809 8.280,1.809 C8.824,1.809 9.266,1.992 9.606,2.357 C9.946,2.722 10.116,3.222 10.116,3.856 C10.116,4.490 9.946,4.989 9.606,5.355 C9.266,5.720 8.824,5.903 8.280,5.903 ZM9.083,2.679 C8.850,2.395 8.536,2.252 8.140,2.252 C7.773,2.252 7.478,2.395 7.255,2.679 C7.033,2.964 6.922,3.356 6.922,3.856 C6.922,4.355 7.033,4.748 7.255,5.032 C7.478,5.317 7.773,5.459 8.140,5.459 C8.536,5.459 8.850,5.317 9.083,5.032 C9.316,4.748 9.433,4.355 9.433,3.856 C9.433,3.356 9.316,2.964 9.083,2.679 Z"/>
<path fill-rule="evenodd"  fill="rgb(246, 195, 40)"
 d="M17.996,1.841 L17.996,2.276 L16.942,2.276 L16.942,5.870 L16.259,5.870 L16.259,2.276 L15.649,2.276 L15.649,1.841 L16.259,1.841 L16.259,1.092 C16.259,0.361 16.709,-0.004 17.609,-0.004 C17.713,-0.004 17.842,0.010 17.996,0.036 L17.996,0.472 C17.914,0.450 17.804,0.439 17.667,0.439 C17.447,0.439 17.272,0.493 17.140,0.600 C17.008,0.708 16.942,0.856 16.942,1.044 L16.942,1.841 L17.996,1.841 ZM14.159,5.081 C13.890,5.629 13.440,5.903 12.809,5.903 C12.260,5.903 11.815,5.720 11.475,5.355 C11.140,4.995 10.973,4.495 10.973,3.856 C10.973,3.217 11.140,2.717 11.475,2.357 C11.815,1.992 12.260,1.809 12.809,1.809 C13.440,1.809 13.890,2.067 14.159,2.583 L14.159,0.028 L14.843,0.028 L14.843,5.870 L14.209,5.870 L14.159,5.081 ZM13.830,2.679 C13.610,2.395 13.316,2.252 12.949,2.252 C12.554,2.252 12.239,2.395 12.006,2.679 C11.773,2.964 11.656,3.356 11.656,3.856 C11.656,4.355 11.773,4.748 12.006,5.032 C12.239,5.317 12.554,5.459 12.949,5.459 C13.316,5.459 13.610,5.317 13.830,5.032 C14.049,4.748 14.159,4.355 14.159,3.856 C14.159,3.356 14.049,2.964 13.830,2.679 ZM8.280,5.903 C7.655,5.903 7.202,5.645 6.922,5.129 L6.922,7.603 L6.238,7.603 L6.238,1.841 L6.881,1.841 L6.922,2.631 C7.202,2.083 7.655,1.809 8.280,1.809 C8.824,1.809 9.266,1.992 9.606,2.357 C9.946,2.722 10.116,3.222 10.116,3.856 C10.116,4.490 9.946,4.989 9.606,5.355 C9.266,5.720 8.824,5.903 8.280,5.903 ZM9.083,2.679 C8.850,2.395 8.536,2.252 8.140,2.252 C7.773,2.252 7.478,2.395 7.255,2.679 C7.033,2.964 6.922,3.356 6.922,3.856 C6.922,4.355 7.033,4.748 7.255,5.032 C7.478,5.317 7.773,5.459 8.140,5.459 C8.536,5.459 8.850,5.317 9.083,5.032 C9.316,4.748 9.433,4.355 9.433,3.856 C9.433,3.356 9.316,2.964 9.083,2.679 Z"/>
<path fill-rule="evenodd"  fill="rgb(246, 195, 40)"
 d="M17.996,1.841 L17.996,2.276 L16.942,2.276 L16.942,5.870 L16.259,5.870 L16.259,2.276 L15.649,2.276 L15.649,1.841 L16.259,1.841 L16.259,1.092 C16.259,0.361 16.709,-0.004 17.609,-0.004 C17.713,-0.004 17.842,0.010 17.996,0.036 L17.996,0.472 C17.914,0.450 17.804,0.439 17.667,0.439 C17.447,0.439 17.272,0.493 17.140,0.600 C17.008,0.708 16.942,0.856 16.942,1.044 L16.942,1.841 L17.996,1.841 ZM14.159,5.081 C13.890,5.629 13.440,5.903 12.809,5.903 C12.260,5.903 11.815,5.720 11.475,5.355 C11.140,4.995 10.973,4.495 10.973,3.856 C10.973,3.217 11.140,2.717 11.475,2.357 C11.815,1.992 12.260,1.809 12.809,1.809 C13.440,1.809 13.890,2.067 14.159,2.583 L14.159,0.028 L14.843,0.028 L14.843,5.870 L14.209,5.870 L14.159,5.081 ZM13.830,2.679 C13.610,2.395 13.316,2.252 12.949,2.252 C12.554,2.252 12.239,2.395 12.006,2.679 C11.773,2.964 11.656,3.356 11.656,3.856 C11.656,4.355 11.773,4.748 12.006,5.032 C12.239,5.317 12.554,5.459 12.949,5.459 C13.316,5.459 13.610,5.317 13.830,5.032 C14.049,4.748 14.159,4.355 14.159,3.856 C14.159,3.356 14.049,2.964 13.830,2.679 ZM8.280,5.903 C7.655,5.903 7.202,5.645 6.922,5.129 L6.922,7.603 L6.238,7.603 L6.238,1.841 L6.881,1.841 L6.922,2.631 C7.202,2.083 7.655,1.809 8.280,1.809 C8.824,1.809 9.266,1.992 9.606,2.357 C9.946,2.722 10.116,3.222 10.116,3.856 C10.116,4.490 9.946,4.989 9.606,5.355 C9.266,5.720 8.824,5.903 8.280,5.903 ZM9.083,2.679 C8.850,2.395 8.536,2.252 8.140,2.252 C7.773,2.252 7.478,2.395 7.255,2.679 C7.033,2.964 6.922,3.356 6.922,3.856 C6.922,4.355 7.033,4.748 7.255,5.032 C7.478,5.317 7.773,5.459 8.140,5.459 C8.536,5.459 8.850,5.317 9.083,5.032 C9.316,4.748 9.433,4.355 9.433,3.856 C9.433,3.356 9.316,2.964 9.083,2.679 Z"/>
<path fill-rule="evenodd"  fill="rgb(226, 182, 49)"
 d="M2.000,11.000 L2.000,12.000 L10.000,12.000 L10.000,11.000 L2.000,11.000 ZM2.000,13.000 L2.000,14.000 L10.000,14.000 L10.000,13.000 L2.000,13.000 ZM2.000,15.000 L2.000,16.000 L10.000,16.000 L10.000,15.000 L2.000,15.000 ZM4.000,5.000 L4.000,6.000 L1.000,6.000 L1.000,21.000 L12.000,21.000 L12.000,10.000 L13.000,10.000 L13.000,22.000 L-0.000,22.000 L-0.000,5.000 L4.000,5.000 Z"/>
</svg>