<svg 
 xmlns="http://www.w3.org/2000/svg"
 xmlns:xlink="http://www.w3.org/1999/xlink"
 width="20px" height="20px">
<path fill-rule="evenodd"  fill="rgb(0, 0, 0)"
 d="M10.002,-0.002 C4.486,-0.002 -0.002,4.485 -0.002,10.001 C-0.002,15.517 4.486,20.005 10.002,20.005 C15.517,20.005 20.005,15.517 20.005,10.001 C20.005,4.485 15.518,-0.002 10.002,-0.002 ZM15.770,15.514 C15.770,15.283 15.770,15.120 15.770,15.120 C15.770,13.756 14.194,13.258 13.350,12.897 C13.045,12.767 12.469,12.490 11.878,12.201 C11.679,12.103 11.499,11.843 11.476,11.621 L11.411,10.975 C11.863,10.554 12.270,9.968 12.339,9.314 L12.441,9.314 C12.602,9.314 12.753,9.194 12.777,9.047 L12.937,8.059 C12.958,7.847 12.758,7.719 12.597,7.719 C12.601,7.698 12.605,7.677 12.607,7.659 C12.627,7.540 12.640,7.426 12.648,7.314 C12.658,7.224 12.666,7.131 12.671,7.035 C12.688,6.568 12.609,6.160 12.478,5.931 C12.345,5.612 12.143,5.302 11.863,5.036 C11.081,4.296 10.175,4.008 9.402,4.603 C8.876,4.512 8.251,4.752 7.799,5.281 C7.552,5.570 7.399,5.900 7.333,6.226 C7.274,6.428 7.235,6.674 7.226,6.939 C7.215,7.235 7.244,7.505 7.299,7.724 C7.145,7.733 6.991,7.860 6.991,8.059 L7.150,9.048 C7.174,9.195 7.325,9.315 7.485,9.315 L7.577,9.315 C7.722,10.022 8.098,10.602 8.513,11.006 L8.450,11.631 C8.428,11.853 8.248,12.112 8.048,12.211 C7.477,12.490 6.914,12.758 6.577,12.897 C5.783,13.224 4.157,13.756 4.157,15.120 L4.157,15.429 C2.832,14.002 2.015,12.098 2.015,10.002 C2.015,5.597 5.598,2.014 10.004,2.014 C14.409,2.014 17.992,5.597 17.992,10.002 C17.991,12.139 17.143,14.078 15.770,15.514 Z"/>
</svg>